<svg t="1753074225591" class="icon" viewBox="0 0 1024 1024" version="1.1" xmlns="http://www.w3.org/2000/svg" p-id="17439" width="200" height="200"><path d="M554.666667 128c0-25.6-17.066667-42.666667-42.666667-42.666667s-42.666667 17.066667-42.666667 42.666667v768c0 25.6 17.066667 42.666667 42.666667 42.666667s42.666667-17.066667 42.666667-42.666667V128zM981.333333 384c0-25.6-17.066667-42.666667-42.666666-42.666667s-42.666667 17.066667-42.666667 42.666667v256c0 25.6 17.066667 42.666667 42.666667 42.666667s42.666667-17.066667 42.666666-42.666667V384zM742.4 247.466667c-4.266667-17.066667-29.866667-17.066667-34.133333 0-8.533333 38.4-38.4 68.266667-76.8 76.8-17.066667 4.266667-17.066667 29.866667 0 34.133333 38.4 8.533333 68.266667 38.4 76.8 76.8 4.266667 17.066667 29.866667 17.066667 34.133333 0 8.533333-38.4 38.4-68.266667 76.8-76.8 17.066667-4.266667 17.066667-29.866667 0-34.133333-38.4-8.533333-68.266667-38.4-76.8-76.8zM341.333333 256c0-25.6-17.066667-42.666667-42.666666-42.666667s-42.666667 17.066667-42.666667 42.666667v512c0 25.6 17.066667 42.666667 42.666667 42.666667s42.666667-17.066667 42.666666-42.666667V256zM725.333333 469.333333c25.6 0 42.666667 17.066667 42.666667 42.666667v213.333333c0 25.6-17.066667 42.666667-42.666667 42.666667s-42.666667-17.066667-42.666666-42.666667v-213.333333c0-25.6 17.066667-42.666667 42.666666-42.666667zM128 384c0-25.6-17.066667-42.666667-42.666667-42.666667s-42.666667 17.066667-42.666666 42.666667v256c0 25.6 17.066667 42.666667 42.666666 42.666667s42.666667-17.066667 42.666667-42.666667V384z" p-id="17440"></path></svg>